# AST/ASF file generated using VICON BodyLanguage
# -----------------------------------------------
:version 1.10
:name VICON
:units
  mass 1.0
  length 0.45
  angle deg
:documentation
   .ast/.asf automatically generated from VICON data using
   VICON BodyBuilder and BodyLanguage model FoxedUp or BRILLIANT.MOD
:root
   order TX TY TZ RX RY RZ
   axis XYZ
   position 0 0 0  
   orientation 0 0 0 
:bonedata
  begin
     id 1 
     name lhipjoint
     direction 0.54267 -0.795011 0.271047 
     length 2.39899 
     axis 0 0 0  XYZ
  end
  begin
     id 2 
     name lfemur
     direction 0.34202 -0.939693 0  
     length 7.49701  
     axis 0 0 20  XYZ
    dof rx ry rz
    limits (-160.0 20.0)
           (-70.0 70.0)
           (-60.0 70.0)
  end
  begin
     id 3 
     name ltibia
     direction 0.34202 -0.939693 0   
     length 8.1668   
     axis 0 0 20   XYZ
    dof rx
    limits (-10.0 170.0)
  end
  begin
     id 4 
     name lfoot
     direction 0.0736283 -0.202292 0.976554   
     length 2.13544   
     axis -90 7.62852e-016 20   XYZ
    dof rx rz
    limits (-45.0 90.0)
           (-70.0 20.0)
  end
  begin
     id 5 
     name ltoes
     direction 1.53557e-011 -4.22024e-011 1   
     length 1.07411   
     axis -90 7.62852e-016 20   XYZ
    dof rx
    limits (-90.0 20.0)
  end
  begin
     id 6 
     name rhipjoint
     direction -0.538061 -0.797813 0.272002   
     length 2.39057  
     axis 0 0 0  XYZ 
  end
  begin
     id 7 
     name rfemur
     direction -0.34202 -0.939693 0   
     length 7.50152   
     axis 0 0 -20   XYZ
    dof rx ry rz
    limits (-160.0 20.0)
           (-70.0 70.0)
           (-70.0 60.0)
  end
  begin
     id 8 
     name rtibia
     direction -0.34202 -0.939693 0   
     length 8.05793   
     axis 0 0 -20   XYZ
    dof rx
    limits (-10.0 170.0)
 end
 begin
     id 9 
     name rfoot
     direction -0.0765195 -0.210236 0.974652   
     length 2.28698  
     axis -90 -7.62852e-016 -20   XYZ
    dof rx rz
    limits (-45.0 90.0)
           (-20.0 70.0)
  end
  begin
     id 10 
     name rtoes
     direction -1.53542e-011 -4.21847e-011 1   
     length 1.14762   
     axis -90 -7.62852e-016 -20   XYZ
    dof rx
    limits (-90.0 20.0)
  end
  begin
     id 11 
     name lowerback
     direction -0.0217239 0.996592 -0.0795765   
     length 2.08176   
     axis 0 0 0   XYZ
    dof rx ry rz
    limits (-20.0 45.0)
           (-30.0 30.0)
           (-30.0 30.0)
  end
  begin
     id 12 
     name upperback
     direction -0.00563773 0.999651 -0.0258155   
     length 2.08898   
     axis 0 0 0   XYZ
    dof rx ry rz
    limits (-20.0 45.0)
           (-30.0 30.0)
           (-30.0 30.0)
  end
  begin
     id 13 
     name thorax
     direction 0.0032706 0.999923 0.0119599   
     length 2.0968   
     axis 0 0 0   XYZ
    dof rx ry rz
    limits (-20.0 45.0)
           (-30.0 30.0)
           (-30.0 30.0)
  end
  begin
     id 14 
     name lowerneck
     direction -0.0285886 0.99568 0.0883427   
     length 1.81272   
     axis 0 0 0   XYZ
    dof rx ry rz
    limits (-20.0 45.0)
           (-30.0 30.0)
           (-30.0 30.0)
  end
  begin
     id 15 
     name upperneck
     direction 0.0807535 0.97985 -0.18268   
     length 1.82518   
     axis 0 0 0   XYZ
    dof rx ry rz
    limits (-20.0 45.0)
           (-30.0 30.0)
           (-30.0 30.0)
  end
  begin
     id 16
     name head
     direction 0.0236605 0.997053 -0.0729767  
     length 1.84443  
     axis 0 0 0   XYZ
    dof rx ry rz
    limits (-20.0 45.0)
           (-30.0 30.0)
           (-30.0 30.0)
  end
  begin
     id 17 
     name lclavicle
     direction 0.918986 0.39378 -0.0200683  
     length 3.27822  
     axis 0 0 0   XYZ
    dof ry rz
    limits (-20.0 10.0)
           (0.0 20.0)
  end
  begin
     id 18 
     name lhumerus
     direction 1 -4.4897e-011 2.09544e-027   
     length 5.5568   
     axis 180 -30 -90   XYZ
    dof rx ry rz
    limits (-60.0 90.0)
           (-90.0 90.0)
           (-90.0 90.0)
  end
  begin
     id 19
     name lradius
     direction 1 -4.48957e-011 -1.27696e-026   
     length 3.63979   
     axis 180 -30 -90   XYZ
    dof rx
    limits (-10.0 170.0)
  end
  begin
     id 20
     name lwrist
     direction 1 -4.49001e-011 -1.49001e-026   
     length 1.8199   
     axis 9.0955e-015 90 90   XYZ
    dof ry
    limits (-180.0 0.0)
 end
  begin
     id 21 
     name lhand
     direction 1 -4.48709e-011 -2.9758e-026   
     length 0.569419   
     axis 1.90115e-014 90 90   XYZ
    dof rx rz
    limits (-90.0 90.0)
           (-45.0 45.0)
  end
  begin
     id 22 
     name lfingers
     direction 1 -4.49175e-011 -5.96505e-026   
     length 0.45908   
     axis 3.80223e-014 90 90   XYZ
    dof rx
    limits (0.0 90.0)
  end
  begin
     id 23
     name lthumb
     direction 0.707107 -6.34864e-011 0.707107   
     length 0.65915   
     axis -90 45 -3.84942e-014   XYZ
    dof rx rz
    limits (-45.0 45.0)
           (-45.0 45.0)
  end
  begin
     id 24 
     name rclavicle
     direction -0.911913 0.396426 -0.106115   
     length 3.46301  
     axis 0 0 0   XYZ 
    dof ry rz
    limits (-10.0 20.0)
           (-20.0 0.0)
  end
  begin
     id 25 
     name rhumerus
     direction -1 -4.48965e-011 7.78516e-028  
     length 5.34339   
     axis 180 30 90   XYZ
    dof rx ry rz
    limits (-90.0 60.0)
           (-90.0 90.0)
           (-90.0 90.0)
  end
  begin
     id 26 
     name rradius
     direction -1 -4.48948e-011 -5.79823e-027   
     length 3.65101   
     axis 180 30 90   XYZ
    dof rx
    limits (-10.0 170.0)
  end
  begin
     id 27 
     name rwrist
     direction -1 -4.48995e-011 -1.48996e-026   
     length 1.8255   
     axis 9.0955e-015 -90 -90   XYZ
    dof ry
    limits (-180.0 0.0)
  end
  begin
     id 28
     name rhand
     direction -1 -4.48957e-011 -2.97937e-026   
     length 0.694249   
     axis 1.90115e-014 -90 -90   XYZ
    dof rx rz
    limits (-90.0 90.0)
           (-45.0 45.0)
  end
  begin
     id 29
     name rfingers
     direction -1 -4.4898e-011 -5.95943e-026   
     length 0.559721   
     axis 3.80223e-014 -90 -90   XYZ
    dof rx
    limits (0.0 90.0)
  end
  begin
     id 30
     name rthumb
     direction -0.707107 -6.34969e-011 0.707107   
     length 0.803651   
     axis -90 -45 3.84942e-014   XYZ
    dof rx rz
    limits (-45.0 45.0)
           (-45.0 45.0)
  end
:hierarchy
  begin
    root lhipjoint rhipjoint lowerback
    lhipjoint lfemur
    lfemur ltibia
    ltibia lfoot
    lfoot ltoes
    rhipjoint rfemur
    rfemur rtibia
    rtibia rfoot
    rfoot rtoes
    lowerback upperback
    upperback thorax
    thorax lowerneck lclavicle rclavicle
    lowerneck upperneck
    upperneck head
    lclavicle lhumerus
    lhumerus lradius
    lradius lwrist
    lwrist lhand lthumb
    lhand lfingers
    rclavicle rhumerus
    rhumerus rradius
    rradius rwrist
    rwrist rhand rthumb
    rhand rfingers
  end

#!OML:ASF H:\Terrain\Walking\May29\JustinRory\rory.ASF
:FULLY-SPECIFIED
:DEGREES
195
root -13.435 17.1115 -8.06652 3.55436 17.2509 -0.434438
lowerback 11.7785 -2.50496 -10.0156
upperback 4.84662 -4.33943 0.552675
thorax -0.659157 -2.30509 6.7143
lowerneck -11.5485 2.21412 0.988235
upperneck 10.9947 3.33312 -3.88601
head 5.2891 1.39824 -1.11134
rclavicle -7.99114e-014 -1.27222e-014
rhumerus -42.6301 -14.9183 -71.4173
rradius 30.6747
rwrist 10.2742
rhand -11.259 38.7712
rfingers 7.12502
rthumb 14.771 9.31757
lclavicle -7.99114e-014 -1.27222e-014
lhumerus -10.91 -6.25748 84.1936
lradius 28.4797
lwrist 0.520449
lhand -29.646 20.735
lfingers 7.12502
lthumb -2.97561 50.694
rfemur -47.3078 -7.10729 18.7123
rtibia 69.6171
rfoot -11.9108 5.63881
rtoes -0.672302
lfemur -3.09896 9.4006 -35.4427
ltibia 35.7254
lfoot -15.9373 -3.95786
ltoes -4.22677
196
root -13.503 17.1473 -8.08887 3.39809 17.4895 -0.54337
lowerback 12.1118 -2.76959 -9.78704
upperback 5.0024 -4.68526 0.717775
thorax -0.615365 -2.48471 6.81037
lowerneck -12.42 2.36464 0.0654081
upperneck 11.66 3.70286 -3.69271
head 5.63377 1.53103 -0.859497
rclavicle -2.18663e-014 1.98785e-014
rhumerus -41.7548 -13.0554 -72.1632
rradius 30.6846
rwrist 10.3645
rhand -10.6864 38.4787
rfingers 7.12502
rthumb 15.3226 9.06639
lclavicle -2.18663e-014 1.98785e-014
lhumerus -10.7075 -5.79852 84.2847
lradius 28.446
lwrist 0.945626
lhand -29.4532 21.869
lfingers 7.12502
lthumb -2.7894 51.8305
rfemur -46.6687 -5.64207 17.5865
rtibia 69.8078
rfoot -11.9828 4.53074
rtoes -2.85794
lfemur -3.34664 9.10618 -35.1167
ltibia 36.1171
lfoot -15.7435 -3.8639
ltoes -4.14188
197
root -13.5641 17.1915 -8.10305 3.38626 17.6512 -0.83922
lowerback 12.0014 -2.58665 -9.23854
upperback 4.94749 -4.37739 0.624556
thorax -0.729306 -2.31321 6.3694
lowerneck -12.1917 2.18708 0.600653
upperneck 12.1226 3.4222 -3.96532
head 5.74865 1.39413 -1.05711
rclavicle 3.45885e-014 8.74653e-015
rhumerus -42.1882 -12.634 -72.601
rradius 30.9463
rwrist 10.9826
rhand -10.8128 38.3218
rfingers 7.12502
rthumb 15.2008 8.90016
lclavicle 3.45885e-014 8.74653e-015
lhumerus -10.7133 -6.38351 84.3974
lradius 28.0879
lwrist 0.346197
lhand -28.2196 21.2878
lfingers 7.12502
lthumb -1.59797 51.2616
rfemur -46.148 -3.9442 16.6073
rtibia 69.7763
rfoot -11.7396 4.32011
rtoes -4.28808
lfemur -3.85753 8.93664 -34.6209
ltibia 36.6218
lfoot -15.3884 -3.75917
ltoes -4.01021
198
root -13.6242 17.2322 -8.11202 3.41547 17.7778 -1.12153
lowerback 11.7311 -2.53206 -8.86117
upperback 5.02192 -4.23361 0.69832
thorax -0.555394 -2.24837 6.20029
lowerneck -12.1502 2.08848 0.584209
upperneck 12.4234 3.33461 -4.16975
head 5.83792 1.33128 -1.12628
rclavicle -6.06293e-014 -6.36111e-015
rhumerus -42.0669 -11.638 -73.0742
rradius 30.9777
rwrist 11.759
rhand -11.7225 38.8182
rfingers 7.12502
rthumb 14.3244 9.33229
lclavicle -6.06293e-014 -6.36111e-015
lhumerus -10.7921 -6.11899 84.5807
lradius 28.1166
lwrist -0.680561
lhand -27.1486 19.9617
lfingers 7.12502
lthumb -0.563622 49.9407
rfemur -45.6696 -2.28789 15.7047
rtibia 69.628
rfoot -10.9309 4.74691
rtoes -3.54261
lfemur -4.40068 8.79003 -34.103
ltibia 37.1586
lfoot -14.8916 -3.94677
ltoes -3.87235
199
root -13.6867 17.2631 -8.12438 3.54489 17.9634 -1.09281
lowerback 11.5538 -2.53964 -8.86561
upperback 5.06893 -4.22317 0.802593
thorax -0.40174 -2.25413 6.2982
lowerneck -12.1771 2.03385 0.180433
upperneck 12.7362 3.34172 -4.12453
head 5.93458 1.31326 -1.04485
rclavicle 4.25399e-014 1.59028e-015
rhumerus -41.8539 -10.1981 -73.5168
rradius 31.1698
rwrist 11.7775
rhand -11.8434 38.8374
rfingers 7.12502
rthumb 14.2079 9.34331
lclavicle 4.25399e-014 1.59028e-015
lhumerus -10.8087 -6.00436 84.812
lradius 28.1008
lwrist -0.793252
lhand -28.0504 18.6386
lfingers 7.12502
lthumb -1.43459 48.6135
rfemur -45.1739 -1.00507 14.6475
rtibia 69.381
rfoot -9.85013 5.58641
rtoes -2.23302
lfemur -4.87861 8.53292 -33.9249
ltibia 37.6038
lfoot -14.2124 -4.37983
ltoes -3.02079
200
root -13.7414 17.3063 -8.12476 3.63039 18.158 -1.10075
lowerback 11.4926 -2.51898 -8.75767
upperback 5.06141 -4.17894 0.814027
thorax -0.392425 -2.23048 6.24186
lowerneck -12.271 1.96575 0.048106
upperneck 13.1286 3.27858 -4.03459
head 6.06958 1.27511 -0.999002
rclavicle -2.98177e-015 -1.90833e-014
rhumerus -41.678 -9.28045 -73.8304
rradius 31.3458
rwrist 11.6477
rhand -10.8663 38.5006
rfingers 7.12502
rthumb 15.1493 9.07514
lclavicle -2.98177e-015 -1.90833e-014
lhumerus -10.7659 -5.96132 84.9545
lradius 27.8073
lwrist -0.661647
lhand -28.1337 19.619
lfingers 7.12502
lthumb -1.51508 49.5934
rfemur -44.4728 0.263117 13.6755
rtibia 68.956
rfoot -8.81967 6.75999
rtoes -0.0127963
lfemur -5.21089 8.30981 -33.6999
ltibia 37.9541
lfoot -13.862 -4.81355
ltoes -0.553608
201
root -13.7846 17.3584 -8.11937 3.64234 18.4892 -1.15359
lowerback 11.3676 -2.42284 -8.45754
upperback 4.90743 -4.01879 0.751584
thorax -0.544908 -2.13233 5.99074
lowerneck -11.4062 1.74515 0.190442
upperneck 13.1537 2.95308 -4.08019
head 5.925 1.13223 -1.07165
rclavicle -2.10712e-014 -8.74653e-015
rhumerus -41.9174 -8.90536 -73.8626
rradius 31.2604
rwrist 11.636
rhand -10.5032 38.6879
rfingers 7.12502
rthumb 15.4991 9.2891
lclavicle -2.10712e-014 -8.74653e-015
lhumerus -11.3289 -6.30076 85.2134
lradius 27.6555
lwrist -0.988052
lhand -27.3551 20.4988
lfingers 7.12502
lthumb -0.763008 50.4772
rfemur -43.4786 1.4021 12.8261
rtibia 68.3439
rfoot -7.69584 7.9934
rtoes 0.5999
lfemur -5.38229 8.10103 -33.3974
ltibia 38.2029
lfoot -13.5986 -4.89406
ltoes -0.0362804
202
root -13.8264 17.3974 -8.1219 3.65487 19.011 -1.45896
lowerback 11.2333 -2.49787 -7.95224
upperback 4.7974 -4.05723 0.916154
thorax -0.61026 -2.14007 5.87984
lowerneck -11.0331 1.68078 0.104875
upperneck 13.3494 2.91573 -4.27505
head 5.92426 1.09692 -1.1249
rclavicle 5.08889e-014 -8.74653e-015
rhumerus -41.8433 -8.2617 -73.7949
rradius 31.2858
rwrist 11.3609
rhand -10.305 38.5467
rfingers 7.12502
rthumb 15.6899 9.16287
lclavicle 5.08889e-014 -8.74653e-015
lhumerus -11.6711 -6.53332 85.5463
lradius 27.3839
lwrist -1.27493
lhand -27.4144 19.9027
lfingers 7.12502
lthumb -0.820369 49.8809
rfemur -42.4047 2.15655 12.441
rtibia 67.5752
rfoot -6.95161 8.99803
rtoes -1.90846
lfemur -5.63161 7.90162 -32.8531
ltibia 38.425
lfoot -13.0862 -4.84863
ltoes -0.893789
203
root -13.869 17.4375 -8.11536 3.49626 19.4556 -2.20188
lowerback 11.2042 -2.69777 -7.18048
upperback 4.75295 -4.23691 1.23383
thorax -0.651396 -2.22029 5.79735
lowerneck -11.4187 1.80531 0.0832979
upperneck 14.0191 3.16835 -4.55098
head 6.21318 1.17921 -1.18442
rclavicle 4.63168e-014 -2.70347e-014
rhumerus -41.6189 -7.36989 -73.8256
rradius 31.8573
rwrist 10.7496
rhand -8.64349 37.6186
rfingers 7.12502
rthumb 17.2896 8.36766
lclavicle 4.63168e-014 -2.70347e-014
lhumerus -11.8522 -6.23376 85.7335
lradius 27.1212
lwrist -1.38503
lhand -27.4178 21.068
lfingers 7.12502
lthumb -0.823618 51.0461
rfemur -41.2664 3.10587 12.5825
rtibia 66.6538
rfoot -6.34127 10.0468
rtoes -2.06241
lfemur -5.82188 7.87441 -31.8148
ltibia 38.6279
lfoot -12.2523 -4.90355
ltoes 2.94233
204
root -13.9096 17.4733 -8.09762 3.47974 19.7993 -2.45939
lowerback 11.0242 -2.79709 -6.90198
upperback 4.80769 -4.32318 1.36728
thorax -0.495031 -2.26925 5.77441
lowerneck -12.1116 1.8376 0.158384
upperneck 14.8977 3.2767 -4.70461
head 6.61997 1.19619 -1.23151
rclavicle -4.9895e-014 2.78299e-014
rhumerus -41.2963 -6.77267 -73.8377
rradius 32.2747
rwrist 10.1389
rhand -7.04408 36.6308
rfingers 7.12502
rthumb 18.8284 7.52205
lclavicle -4.9895e-014 2.78299e-014
lhumerus -11.8844 -5.15399 85.8553
lradius 26.8959
lwrist -2.42908
lhand -26.5361 21.9534
lfingers 7.12502
lthumb 0.0279568 51.9332
rfemur -40.1826 4.17689 12.224
rtibia 65.6841
rfoot -5.26658 11.2012
rtoes 1.01521
lfemur -5.96915 7.76696 -31.2714
ltibia 38.8056
lfoot -11.2999 -4.96817
ltoes 6.22987
205
root -13.9475 17.5242 -8.07739 3.71508 20.1607 -2.32347
lowerback 10.561 -2.77047 -7.00535
upperback 4.81667 -4.26608 1.40019
thorax -0.230154 -2.25421 5.83
lowerneck -12.2272 1.71675 0.181986
upperneck 15.3524 3.14792 -4.79121
head 6.78451 1.11821 -1.27521
rclavicle -4.17448e-014 -3.97569e-015
rhumerus -41.0438 -6.41453 -73.7365
rradius 32.32
rwrist 9.55493
rhand -6.84048 36.2059
rfingers 7.12502
rthumb 19.0242 7.11631
lclavicle -4.17448e-014 -3.97569e-015
lhumerus -11.8525 -4.16812 86.0428
lradius 26.5449
lwrist -4.16488
lhand -26.0611 20.6692
lfingers 7.12502
lthumb 0.486758 50.6484
rfemur -39.0744 5.05358 11.5844
rtibia 64.5351
rfoot -4.43293 11.8312
rtoes 3.45776
lfemur -6.27904 7.64931 -31.1363
ltibia 38.9296
lfoot -10.7568 -5.01714
ltoes 0.53574
206
root -13.9831 17.5884 -8.05579 3.79068 20.5336 -2.54531
lowerback 10.1864 -2.75588 -6.7619
upperback 4.73968 -4.20147 1.48415
thorax -0.129898 -2.22126 5.75392
lowerneck -12.0171 1.68233 0.415514
upperneck 15.644 3.10209 -4.97598
head 6.84657 1.09219 -1.37955
rclavicle 5.68524e-014 -2.38542e-015
rhumerus -41.0117 -5.84217 -73.7529
rradius 32.4257
rwrist 9.12373
rhand -7.41051 36.16
rfingers 7.12502
rthumb 18.476 7.01739
lclavicle 5.68524e-014 -2.38542e-015
lhumerus -12.3149 -4.59905 86.1437
lradius 26.6673
lwrist -4.33747
lhand -26.4793 19.8929
lfingers 7.12502
lthumb 0.082846 49.8726
rfemur -37.7615 5.88625 11.4764
rtibia 63.1676
rfoot -4.61337 12.0803
rtoes 2.1135
lfemur -6.54993 7.68771 -30.5785
ltibia 39.0155
lfoot -10.2589 -4.9611
ltoes -7.18644
207
root -14.0176 17.6307 -8.03429 3.83848 20.8137 -3.02008
lowerback 9.88196 -2.76625 -6.25542
upperback 4.60388 -4.15468 1.61588
thorax -0.14393 -2.18751 5.58875
lowerneck -12.239 1.74898 0.778274
upperneck 16.3802 3.20052 -5.17689
head 7.13482 1.12703 -1.49603
rclavicle 3.33958e-014 -1.66979e-014
rhumerus -40.8593 -5.71065 -73.5811
rradius 32.2936
rwrist 9.2965
rhand -8.27103 36.1119
rfingers 7.12502
rthumb 17.648 6.89281
lclavicle 3.33958e-014 -1.66979e-014
lhumerus -11.5164 -4.15312 86.181
lradius 24.0204
lwrist -4.98181
lhand -26.5865 19.0754
lfingers 7.12502
lthumb -0.0207107 49.0551
rfemur -36.5482 6.83418 11.6836
rtibia 61.6891
rfoot -5.17385 12.2579
rtoes -0.243208
lfemur -6.7883 7.66435 -29.8141
ltibia 39.0084
lfoot -9.65851 -4.92736
ltoes -5.16563
208
root -14.0486 17.6599 -8.00665 3.99029 21.0503 -3.47684
lowerback 9.51792 -2.87583 -5.8347
upperback 4.43567 -4.24598 1.8772
thorax -0.121065 -2.22738 5.61548
lowerneck -12.6503 1.78968 0.483608
upperneck 17.1177 3.33617 -5.05297
head 7.44601 1.16418 -1.3933
rclavicle -2.46493e-014 1.74931e-014
rhumerus -40.3896 -5.64536 -73.0822
rradius 31.996
rwrist 9.37945
rhand -9.13506 36.6828
rfingers 7.12502
rthumb 16.8164 7.39104
lclavicle -2.46493e-014 1.74931e-014
lhumerus -10.906 -6.49752 86.2982
lradius 21.8311
lwrist -2.86036
lhand -26.5944 18.6652
lfingers 7.12502
lthumb -0.0283742 48.6449
rfemur -35.3667 7.82426 11.9084
rtibia 60.1175
rfoot -5.68055 12.4283
rtoes 0.562039
lfemur -7.05542 7.59024 -29.109
ltibia 38.9044
lfoot -9.29775 -5.13823
ltoes 0.108284
